<?xml version="1.0" ?>
<!-- License: CC0 License. Made by SVG Repo: https://www.svgrepo.com/svg/428671/thai-pattern-architecture-3 -->
<svg fill="#66A898" width="800px" height="800px" viewBox="0 0 64 64" data-name="Layer 1" id="Layer_1" xmlns="http://www.w3.org/2000/svg"><path d="M43.03,28.01c-.24-.24-.6-.34-.93-.26-.33,.08-.6,.33-.71,.65-.18,.52-.41,1.03-.68,1.51-.68,1.18-1.64,2.15-2.75,2.82,.03-.24,.05-.48,.05-.73,0-2.47-1.5-4.6-3.64-5.52,1.6-.87,3.56-1.19,5.45-.81,.34,.07,.69-.04,.92-.29,.24-.25,.33-.6,.24-.94-.98-3.79-4.67-6.45-8.97-6.45s-7.99,2.65-8.97,6.45c-.09,.33,0,.69,.24,.94,.24,.25,.59,.36,.92,.29,1.88-.38,3.85-.06,5.45,.81-2.14,.92-3.64,3.04-3.64,5.52,0,.25,.02,.49,.05,.73-1.11-.67-2.06-1.64-2.75-2.82-.28-.48-.51-.99-.68-1.51-.11-.33-.38-.57-.71-.65-.34-.08-.69,.02-.93,.26-2.8,2.74-3.25,7.26-1.1,10.99,1.75,3.03,4.82,4.83,7.94,4.83,.71,0,1.43-.09,2.13-.29,.33-.09,.59-.35,.69-.68,.1-.33,.02-.69-.21-.95-.36-.41-.69-.87-.97-1.35-.68-1.18-1.04-2.5-1.07-3.79,1.01,.76,2.25,1.22,3.61,1.22s2.6-.46,3.61-1.22c-.02,1.29-.38,2.61-1.07,3.79-.28,.48-.6,.93-.97,1.35-.23,.26-.31,.62-.21,.95,.1,.33,.36,.59,.69,.68,.7,.2,1.42,.29,2.13,.29,3.12,0,6.18-1.8,7.94-4.83,2.15-3.73,1.7-8.24-1.1-10.99Zm-17.18-4.5c-.1,0-.2,0-.29,0,1.21-2.1,3.7-3.52,6.45-3.52s5.24,1.41,6.45,3.52c-2.38-.07-4.7,.71-6.45,2.13-1.68-1.37-3.87-2.14-6.15-2.14Zm2.01,18.32c-2.42,0-4.88-1.45-6.25-3.83-1.38-2.38-1.4-5.25-.18-7.34,.05,.09,.09,.17,.14,.26,1.14,1.98,2.91,3.49,4.93,4.26-.35,2.14,.08,4.42,1.22,6.4,.05,.08,.1,.17,.15,.25h-.02Zm4.14-5.83c-2.21,0-4-1.79-4-4s1.79-4,4-4,4,1.79,4,4-1.79,4-4,4Zm10.39,2c-1.37,2.38-3.83,3.83-6.25,3.83h-.02c.05-.08,.1-.17,.15-.25,1.14-1.98,1.57-4.26,1.22-6.4,2.02-.77,3.79-2.28,4.93-4.26,.05-.08,.1-.17,.14-.26,1.22,2.09,1.2,4.96-.18,7.34Z"/><path d="M53.24,20.73c2.13-1.95,2.95-4.96,1.95-7.6l-.99-2.64c-.1-.27-.31-.48-.58-.58l-2.63-.99c-2.64-.99-5.66-.17-7.6,1.95-2.75-2.36-6.83-3.86-11.39-3.86s-8.52,1.46-11.27,3.76c-1.95-2.13-4.96-2.95-7.6-1.95l-2.64,.99c-.27,.1-.48,.31-.58,.58l-.99,2.63c-.99,2.64-.17,5.66,1.95,7.6-2.36,2.75-3.86,6.83-3.86,11.39s1.46,8.52,3.76,11.27c-2.13,1.95-2.95,4.96-1.95,7.6l.99,2.64c.1,.27,.31,.48,.58,.58l2.63,.99c.76,.28,1.55,.42,2.34,.42,1.96,0,3.89-.85,5.28-2.36,2.75,2.35,6.83,3.85,11.38,3.85s8.51-1.45,11.26-3.75c1.39,1.52,3.32,2.37,5.27,2.37,.79,0,1.58-.14,2.34-.42l2.64-.99c.27-.1,.48-.31,.58-.58l.99-2.63c.99-2.64,.17-5.66-1.95-7.6,2.36-2.75,3.86-6.83,3.86-11.39s-1.46-8.52-3.76-11.27Zm-2.95-9.94l2.21,.83,.83,2.22c.71,1.89,.1,4.06-1.48,5.47-1.44-1.24-3.11-2.04-4.9-2.25-.2-1.74-.96-3.36-2.14-4.78,1.41-1.58,3.59-2.2,5.49-1.49Zm-23.12-1.14c1.49-.42,3.12-.65,4.83-.65s3.33,.23,4.83,.65c.67,.53,1.22,1.16,1.62,1.86-2.4-.07-4.69,.71-6.45,2.14-1.76-1.43-4.05-2.22-6.45-2.14,.4-.7,.95-1.33,1.62-1.86ZM10.79,13.71l.83-2.21,2.22-.83c1.89-.71,4.06-.1,5.47,1.48-1.24,1.44-2.04,3.11-2.25,4.9-1.74,.2-3.36,.96-4.78,2.14-1.58-1.41-2.2-3.59-1.49-5.49Zm-1.13,23.12c-.42-1.49-.65-3.12-.65-4.83s.23-3.33,.65-4.83c.53-.67,1.16-1.22,1.86-1.62,0,.1,0,.2,0,.3,0,2.28,.77,4.47,2.14,6.15-1.37,1.68-2.14,3.87-2.14,6.15,0,.1,0,.2,0,.3-.7-.4-1.34-.95-1.86-1.62Zm4.06,16.39l-2.21-.83-.83-2.22c-.71-1.89-.1-4.06,1.48-5.47,1.44,1.24,3.11,2.04,4.9,2.25,.2,1.74,.96,3.36,2.14,4.78-1.41,1.58-3.59,2.2-5.49,1.49Zm23.12,1.14c-1.49,.42-3.12,.65-4.83,.65s-3.33-.23-4.83-.65c-.67-.53-1.22-1.16-1.62-1.86,2.41,.07,4.69-.71,6.45-2.14,1.76,1.43,4.04,2.2,6.45,2.14-.4,.7-.95,1.33-1.62,1.86Zm3.72-1.58c.17-.39,.32-.8,.42-1.21,.08-.33,0-.68-.24-.93s-.57-.36-.91-.3c-.59,.11-1.13,.16-1.67,.16-2.08,0-4.06-.8-5.44-2.19-.38-.38-1.05-.38-1.42,0-1.38,1.39-3.36,2.19-5.44,2.19-.53,0-1.08-.05-1.67-.16-.34-.06-.68,.05-.91,.3s-.32,.6-.24,.93c.11,.41,.25,.82,.42,1.21-2.72-1.65-4.46-4.07-4.46-6.77,0-.55-.45-1-1-1-2.7,0-5.12-1.73-6.77-4.46,.39,.17,.8,.32,1.21,.42,.08,.02,.17,.03,.25,.03,.25,0,.5-.09,.68-.27,.25-.23,.36-.58,.3-.91-.11-.59-.16-1.13-.16-1.67,0-2.08,.8-4.06,2.19-5.44,.19-.19,.3-.44,.3-.71s-.11-.52-.3-.71c-1.39-1.38-2.19-3.36-2.19-5.44,0-.53,.05-1.08,.16-1.67,.06-.34-.05-.68-.3-.91-.25-.23-.6-.32-.93-.24-.41,.11-.82,.25-1.21,.42,1.65-2.72,4.07-4.46,6.77-4.46,.55,0,1-.45,1-1,0-2.7,1.73-5.12,4.46-6.77-.17,.39-.32,.8-.42,1.21-.08,.33,0,.68,.24,.93,.23,.25,.57,.37,.91,.3,.59-.11,1.13-.16,1.67-.16,2.08,0,4.06,.8,5.44,2.19,.19,.19,.44,.3,.71,.3s.52-.11,.71-.3c1.38-1.39,3.36-2.19,5.44-2.19,.53,0,1.08,.05,1.67,.16,.34,.07,.68-.05,.91-.3,.23-.25,.32-.6,.24-.93-.11-.41-.25-.82-.42-1.21,2.72,1.65,4.46,4.07,4.46,6.77,0,.55,.45,1,1,1,2.7,0,5.12,1.73,6.77,4.46-.39-.17-.8-.32-1.21-.42-.33-.08-.68,0-.93,.24-.25,.23-.36,.58-.3,.91,.11,.59,.16,1.13,.16,1.67,0,2.08-.8,4.06-2.19,5.44-.19,.19-.3,.44-.3,.71s.11,.52,.3,.71c1.39,1.38,2.19,3.36,2.19,5.44,0,.53-.05,1.08-.16,1.67-.06,.34,.05,.68,.3,.91,.19,.18,.43,.27,.68,.27,.08,0,.17-.01,.25-.03,.41-.11,.82-.25,1.21-.42-1.65,2.72-4.07,4.46-6.77,4.46-.55,0-1,.45-1,1,0,2.7-1.73,5.12-4.46,6.77Zm12.67-2.48l-.83,2.21-2.22,.83c-1.89,.71-4.06,.1-5.47-1.48,1.24-1.44,2.04-3.11,2.25-4.9,1.74-.2,3.36-.96,4.78-2.14,1.58,1.41,2.2,3.59,1.49,5.49Zm-.73-11.84c0-.1,0-.2,0-.3,0-2.28-.77-4.47-2.14-6.15,1.37-1.68,2.14-3.87,2.14-6.15,0-.1,0-.2,0-.3,.7,.4,1.34,.95,1.86,1.62,.42,1.49,.65,3.12,.65,4.83s-.23,3.33-.65,4.83c-.53,.67-1.16,1.22-1.86,1.62Z"/></svg>