<svg width="25" height="20" viewBox="0 0 25 20" fill="none" xmlns="http://www.w3.org/2000/svg">
<path d="M24.356 10.0001C24.356 10.5606 23.9396 11.0238 23.3992 11.0971L23.249 11.1072L3.78774 11.1064L10.8185 18.1084C11.2518 18.5398 11.2533 19.2408 10.8219 19.6741C10.4297 20.0679 9.81471 20.105 9.38061 19.7844L9.25621 19.6774L0.325661 10.7853C0.268547 10.7284 0.218941 10.6668 0.17684 10.6018C0.164948 10.5823 0.152843 10.5623 0.141367 10.5419C0.130812 10.5244 0.121273 10.5062 0.112274 10.4878C0.0997772 10.4611 0.0875664 10.4335 0.076479 10.4053C0.0674706 10.3836 0.059948 10.3624 0.0530872 10.3411C0.0449314 10.3147 0.0370064 10.2866 0.0301895 10.258C0.0251217 10.238 0.0211086 10.2188 0.0176067 10.1996C0.0126839 10.1709 0.00849342 10.1412 0.0055027 10.1112C0.00292206 10.0882 0.00136757 10.0655 0.000509262 10.0428C0.000286102 10.0291 7.62939e-06 10.0146 7.62939e-06 10.0001L0.000562668 9.95726C0.00141144 9.93553 0.00289536 9.91382 0.00501633 9.89217L7.62939e-06 10.0001C7.62939e-06 9.93028 0.00647926 9.86193 0.0188541 9.79566C0.0217247 9.77983 0.0251446 9.76358 0.0289307 9.7474C0.0367947 9.71407 0.0458832 9.68198 0.0563488 9.65052C0.0614853 9.63488 0.0674686 9.61818 0.073864 9.6016C0.0868015 9.56829 0.100863 9.53654 0.116333 9.5056C0.123518 9.49106 0.131567 9.47583 0.139996 9.46076C0.153831 9.43617 0.168083 9.4128 0.183155 9.39003C0.193789 9.37391 0.205563 9.35713 0.217859 9.34061L0.22744 9.32785C0.257267 9.28889 0.289623 9.25196 0.324266 9.21731L0.325596 9.21629L9.25614 0.322641C9.68938 -0.10881 10.3904 -0.107358 10.8218 0.325882C11.214 0.719738 11.2485 1.33486 10.926 1.7676L10.8186 1.89154L3.79069 8.89217L23.249 8.89305C23.8604 8.89305 24.356 9.38872 24.356 10.0001Z" fill="#1D2939"/>
</svg>
