<svg width="15" height="16" viewBox="0 0 15 16" fill="none" xmlns="http://www.w3.org/2000/svg">
<g id="Iconly/Light-Outline/Delete">
<g id="Delete">
<path id="Combined-Shape" fill-rule="evenodd" clip-rule="evenodd" d="M13.3403 5.37584C13.6707 5.40304 13.9171 5.69185 13.8907 6.02225C13.8859 6.07665 13.4523 11.4455 13.2027 13.6976C13.0475 15.0952 12.1243 15.9456 10.7307 15.9712C9.66424 15.9896 8.63543 16 7.62981 16C6.5458 16 5.48898 15.988 4.44337 15.9664C3.10574 15.94 2.18013 15.0728 2.02893 13.7032C1.77692 11.4311 1.34572 6.07585 1.34172 6.02225C1.31452 5.69185 1.56092 5.40224 1.89133 5.37584C2.21693 5.36704 2.51134 5.59584 2.53774 5.92545C2.54029 5.96017 2.71657 8.14711 2.90867 10.3109L2.94726 10.7427C3.04401 11.8182 3.14209 12.8517 3.22175 13.5712C3.30735 14.3496 3.72735 14.7512 4.46817 14.7664C6.4682 14.8088 8.50903 14.8112 10.7091 14.7712C11.4963 14.756 11.9219 14.3624 12.0099 13.5656C12.2579 11.3303 12.6899 5.97985 12.6947 5.92545C12.7211 5.59584 13.0131 5.36544 13.3403 5.37584ZM9.30888 0C10.0433 0 10.6889 0.495207 10.8785 1.20482L11.0817 2.21363C11.1474 2.54434 11.4376 2.78585 11.7736 2.79115L14.399 2.79124C14.7302 2.79124 14.999 3.06005 14.999 3.39125C14.999 3.72246 14.7302 3.99126 14.399 3.99126L11.7971 3.99114C11.793 3.99122 11.789 3.99126 11.7849 3.99126L11.7654 3.99046L3.46577 3.99116C3.45931 3.99123 3.45285 3.99126 3.44639 3.99126L3.43407 3.99046L0.832431 3.99126C0.501226 3.99126 0.232422 3.72246 0.232422 3.39125C0.232422 3.06005 0.501226 2.79124 0.832431 2.79124L3.45727 2.79044L3.53809 2.78533C3.83912 2.74627 4.08931 2.51764 4.1504 2.21363L4.3448 1.24082C4.54241 0.495207 5.18802 0 5.92243 0H9.30888ZM9.30888 1.20002H5.92243C5.73042 1.20002 5.56162 1.32882 5.51282 1.51362L5.32642 2.44964C5.30273 2.5682 5.26823 2.68245 5.22408 2.79146H10.0075C9.96326 2.68245 9.92868 2.5682 9.90489 2.44964L9.71048 1.47682C9.66968 1.32882 9.50088 1.20002 9.30888 1.20002Z" fill="#F04438"/>
</g>
</g>
</svg>
