<svg width="100" height="77" viewBox="0 0 100 77" fill="none" xmlns="http://www.w3.org/2000/svg">
<g clip-path="url(#clip0_2028_10685)">
<path fill-rule="evenodd" clip-rule="evenodd" d="M81.8351 7.98816C83.9185 7.62901 86.0594 8.11223 87.7866 9.33152C89.5138 10.5508 90.6859 12.4063 91.045 14.4898L93.7534 30.2014C80.096 23.2166 63.9947 33.6365 64.775 48.9565C65.0357 54.0835 67.2647 58.9122 70.9977 62.4363L73.029 74.2201L29.8221 81.668C27.7386 82.0272 25.5977 81.544 23.8705 80.3247C22.1433 79.1054 20.9712 77.2499 20.6121 75.1664L12.487 28.0316C12.1278 25.9481 12.6111 23.8073 13.8304 22.0801C15.0496 20.3529 16.9051 19.1808 18.9886 18.8216L81.8351 7.98816Z" fill="#8CBEB2"/>
<path fill-rule="evenodd" clip-rule="evenodd" d="M81.8936 35.8763C91.4884 34.2223 99.2796 43.5765 95.9127 52.7147C95.4491 53.9733 94.7883 55.1503 93.955 56.2014L97.5043 76.7915C97.5654 77.1458 97.5348 77.5098 97.4155 77.849C97.2963 78.1882 97.0922 78.4912 96.8228 78.7293C96.5534 78.9674 96.2276 79.1327 95.8764 79.2094C95.5251 79.2861 95.1601 79.2717 94.816 79.1676L89.0567 77.4304L84.2114 80.9956C83.922 81.2089 83.5828 81.3447 83.2261 81.39C82.8695 81.4353 82.5071 81.3887 82.1736 81.2545C81.84 81.1204 81.5463 80.9031 81.3204 80.6235C81.0944 80.3438 80.9437 80.011 80.8826 79.6567L77.3333 59.0666C69.0788 53.9001 69.511 41.7377 78.1115 37.17C79.2956 36.5423 80.5722 36.104 81.8936 35.8763ZM51.3731 32.5796L26.4406 36.8774C25.3816 37.0612 24.4328 37.6423 23.788 38.5022C23.1432 39.362 22.851 40.4356 22.9712 41.5036C23.0914 42.5716 23.6149 43.5534 24.4347 44.2484C25.2545 44.9434 26.3087 45.2992 27.382 45.243L27.8732 45.1883L52.8057 40.8904C53.8646 40.7067 54.8134 40.1255 55.4582 39.2657C56.103 38.4059 56.3952 37.3323 56.275 36.2643C56.1548 35.1962 55.6314 34.2144 54.8116 33.5194C53.9918 32.8244 52.9375 32.4687 51.8643 32.5249L51.3731 32.5796ZM37.6166 52.0665L29.3058 53.4991C28.2037 53.6891 27.2222 54.3091 26.5773 55.2227C25.9323 56.1363 25.6767 57.2687 25.8667 58.3708C26.0567 59.4729 26.6767 60.4544 27.5903 61.0993C28.5039 61.7443 29.6363 61.9999 30.7384 61.8099L39.0492 60.3773C40.1513 60.1873 41.1328 59.5673 41.7778 58.6537C42.4227 57.7401 42.6783 56.6077 42.4884 55.5056C42.2984 54.4035 41.6784 53.422 40.7648 52.7771C39.8511 52.1321 38.7187 51.8765 37.6166 52.0665Z" fill="#115343"/>
</g>
<defs>
<clipPath id="clip0_2028_10685">
<rect width="95.66" height="95.66" fill="white" transform="translate(0.570312 5.82031) rotate(-9.7805)"/>
</clipPath>
</defs>
</svg>
