<svg width="18" height="18" viewBox="0 0 18 18" fill="none" xmlns="http://www.w3.org/2000/svg">
<path d="M6.75 10.125V6.75C6.75 6.04275 6.75 5.6895 6.53025 5.46975C6.3105 5.25 5.95725 5.25 5.25 5.25H3.75C3.04275 5.25 2.6895 5.25 2.46975 5.46975C2.25 5.6895 2.25 6.04275 2.25 6.75V13.5C2.25 14.9145 2.25 15.621 2.6895 16.0605C3.129 16.5 3.8355 16.5 5.25 16.5H6.75M6.75 10.125L9.23775 8.8815C10.0628 8.469 10.4753 8.262 10.7955 8.39925C10.8639 8.42841 10.9276 8.46759 10.9845 8.5155C11.25 8.7405 11.25 9.20175 11.25 10.125L13.5795 8.96025C14.5523 8.47425 15.0382 8.2305 15.3945 8.45025C15.7507 8.67 15.75 9.2145 15.75 10.3027V13.5C15.75 14.9145 15.75 15.621 15.3105 16.0605C14.871 16.5 14.1645 16.5 12.75 16.5H6.75M6.75 10.125V16.5M2.25 7.5H6.75M9.75 1.5H6C5.29275 1.5 4.9395 1.5 4.71975 1.71975C4.5 1.9395 4.5 2.29275 4.5 3M12 1.5H12.75M8.25 3.75H12.75" stroke="#166854" stroke-width="1.25" stroke-linecap="round" stroke-linejoin="round"/>
</svg>
