<svg width="92" height="77" viewBox="0 0 92 77" fill="none" xmlns="http://www.w3.org/2000/svg">
<path fill-rule="evenodd" clip-rule="evenodd" d="M20.0465 14.5745C18.4771 14.8003 17.0616 15.6403 16.1115 16.9097C15.1613 18.1791 14.7544 19.774 14.9801 21.3434L23.4925 80.5198C23.7183 82.0893 24.5583 83.5048 25.8277 84.4549C27.0971 85.405 28.692 85.812 30.2614 85.5862L89.4378 77.0738C91.0073 76.8481 92.4228 76.0081 93.3729 74.7387C94.323 73.4693 94.73 71.8744 94.5042 70.3049L85.9918 11.1285C85.7661 9.55908 84.9261 8.14359 83.6567 7.19346C82.3873 6.24333 80.7924 5.83638 79.223 6.06214L20.0465 14.5745Z" fill="#8CBEB2"/>
<path fill-rule="evenodd" clip-rule="evenodd" d="M46.6285 33.061C43.824 33.9719 42.0792 36.7099 42.1531 39.6581L42.7164 61.6212L70.7239 57.5924L65.0642 36.332C64.3096 33.4961 61.8838 31.3633 58.9515 31.2741C54.5549 31.1401 50.9794 31.6472 46.6285 33.061ZM49.8881 40.3071C49.8686 39.8457 49.6695 39.4102 49.3332 39.0938C48.9969 38.7773 48.5502 38.6049 48.0885 38.6135C47.6268 38.622 47.1867 38.8108 46.8624 39.1395C46.538 39.4682 46.3551 39.9108 46.3527 40.3725L46.5911 53.2703C46.5899 53.5061 46.6358 53.7397 46.7262 53.9574C46.8166 54.1752 46.9496 54.3727 47.1174 54.5382C47.2853 54.7038 47.4845 54.8342 47.7034 54.9217C47.9224 55.0091 48.1566 55.052 48.3923 55.0476C48.628 55.0432 48.8605 54.9918 49.076 54.8963C49.2916 54.8007 49.4859 54.6631 49.6474 54.4914C49.809 54.3197 49.9346 54.1174 50.0169 53.8965C50.0992 53.6756 50.1364 53.4404 50.1265 53.2048L49.8881 40.3071Z" fill="#115343"/>
<path fill-rule="evenodd" clip-rule="evenodd" d="M50.5475 35.6214C51.4005 36.0596 52.1189 36.7208 52.626 37.5347C53.1332 38.3487 53.4103 39.2849 53.4279 40.2437L53.668 53.1412C53.6923 54.4778 53.2223 55.7067 52.4224 56.6544L66.2861 54.6601L61.651 37.2438C61.2534 35.7465 60.0486 34.8479 58.8498 34.8113C55.8512 34.7209 53.3134 34.9519 50.5475 35.6214ZM65.0686 36.3341C64.314 33.4982 61.8882 31.3654 58.9559 31.2762C54.5592 31.1422 50.9838 31.6493 46.6329 33.0631C43.8284 33.974 42.0836 36.712 42.1575 39.6602L42.7208 61.6233L70.7282 57.5945L65.0686 36.3341ZM49.8925 40.3092L50.1309 53.2069C50.1408 53.4425 50.1035 53.6777 50.0213 53.8986C49.939 54.1195 49.8134 54.3218 49.6518 54.4935C49.4902 54.6652 49.296 54.8029 49.0804 54.8984C48.8649 54.9939 48.6324 55.0453 48.3967 55.0497C48.161 55.0541 47.9267 55.0113 47.7078 54.9238C47.4889 54.8363 47.2896 54.7059 47.1218 54.5404C46.954 54.3748 46.821 54.1773 46.7306 53.9595C46.6402 53.7418 46.5943 53.5082 46.5955 53.2724L46.3571 40.3746C46.3472 40.1391 46.3844 39.9039 46.4667 39.683C46.549 39.462 46.6746 39.2598 46.8362 39.0881C46.9977 38.9164 47.192 38.7787 47.4075 38.6832C47.6231 38.5877 47.8556 38.5362 48.0913 38.5319C48.327 38.5275 48.5612 38.5703 48.7802 38.6578C48.9991 38.7453 49.1983 38.8756 49.3662 39.0412C49.534 39.2068 49.667 39.4043 49.7574 39.622C49.8478 39.8398 49.8937 40.0734 49.8925 40.3092ZM73.4859 64.3446L41.9775 68.877L41.4739 65.376L72.9823 60.8436L73.4859 64.3446Z" fill="#115343"/>
<path d="M35.4524 48.3722C35.5878 49.3135 34.9714 50.2281 34.0301 50.3635L32.2033 50.6263C31.2365 50.7654 30.3401 50.0944 30.201 49.1276C30.0619 48.1609 30.7329 47.2644 31.6997 47.1254L33.5265 46.8626C34.4678 46.7272 35.317 47.431 35.4524 48.3722ZM35.7319 36.1022C36.615 36.4557 36.9977 37.4901 36.6438 38.3732C36.2901 39.2558 35.2997 39.7397 34.417 39.3862L32.7066 38.7012C31.8 38.3381 31.3593 37.3089 31.7222 36.4022C32.0852 35.4953 33.1146 35.0545 34.0214 35.4175L35.7319 36.1022ZM43.0244 27.886C43.6125 28.6332 43.4246 29.7225 42.6776 30.3109C41.9294 30.9003 40.8316 30.821 40.2427 30.0724L39.1049 28.6259C38.501 27.8581 38.6339 26.7461 39.4017 26.1422C40.1693 25.5384 41.281 25.671 41.885 26.4384L43.0244 27.886ZM51.9377 26.3473C50.9965 26.4827 50.0819 25.8663 49.9465 24.925L49.6837 23.0981C49.5446 22.1314 50.2156 21.2349 51.1823 21.0959C52.1491 20.9568 53.0455 21.6278 53.1846 22.5945L53.4474 24.4214C53.5828 25.3627 52.879 26.2114 51.9377 26.3473ZM64.2078 26.6268C63.8543 27.5099 62.8198 27.8926 61.9368 27.5387C61.0542 27.185 60.5703 26.1946 60.9238 25.3119L61.6088 23.6015C61.9719 22.6949 63.0011 22.2542 63.9078 22.6171C64.8147 22.9801 65.2555 24.0095 64.8925 24.9163L64.2078 26.6268ZM72.4247 33.9187C71.6776 34.5068 70.5909 34.322 70.0025 33.5751C69.4135 32.8275 69.4889 31.7265 70.2369 31.1381L71.6841 29.9998C72.4519 29.3959 73.5639 29.5288 74.1678 30.2966C74.7716 31.0642 74.6389 32.1759 73.8715 32.7799L72.4247 33.9187ZM73.9627 42.8326C73.8273 41.8913 74.4437 40.9767 75.385 40.8413L77.2118 40.5785C78.1786 40.4395 79.075 41.1105 79.2141 42.0772C79.3532 43.044 78.6822 43.9404 77.7154 44.0795L75.8886 44.3423C74.9473 44.4777 74.0981 43.7739 73.9627 42.8326Z" fill="#115343"/>
</svg>
