<svg width="18" height="18" viewBox="0 0 18 18" fill="none" xmlns="http://www.w3.org/2000/svg">
<path d="M12 3C13.6312 3.009 14.5148 3.08175 15.0908 3.65775C15.75 4.317 15.75 5.3775 15.75 7.4985V11.9985C15.75 14.1203 15.75 15.1807 15.0908 15.84C14.4323 16.4985 13.371 16.4985 11.25 16.4985H6.75C4.629 16.4985 3.56775 16.4985 2.90925 15.84C2.25 15.18 2.25 14.1203 2.25 11.9985V7.4985C2.25 5.3775 2.25 4.317 2.90925 3.65775C3.48525 3.08175 4.36875 3.009 6 3" stroke="#166854" stroke-width="1.25"/>
<path d="M6 10.5H12M5.25 7.875H12.75M6.75 13.125H11.25" stroke="#166854" stroke-width="1.25" stroke-linecap="round"/>
<path d="M6 2.625C6 2.32663 6.11853 2.04048 6.3295 1.8295C6.54048 1.61853 6.82663 1.5 7.125 1.5H10.875C11.1734 1.5 11.4595 1.61853 11.6705 1.8295C11.8815 2.04048 12 2.32663 12 2.625V3.375C12 3.67337 11.8815 3.95952 11.6705 4.1705C11.4595 4.38147 11.1734 4.5 10.875 4.5H7.125C6.82663 4.5 6.54048 4.38147 6.3295 4.1705C6.11853 3.95952 6 3.67337 6 3.375V2.625Z" stroke="#166854" stroke-width="1.25"/>
</svg>
