<svg width="18" height="18" viewBox="0 0 18 18" fill="none" xmlns="http://www.w3.org/2000/svg">
<path d="M12 6C12 6.79565 11.6839 7.55871 11.1213 8.12132C10.5587 8.68393 9.79565 9 9 9C8.20435 9 7.44129 8.68393 6.87868 8.12132C6.31607 7.55871 6 6.79565 6 6M12 6H6M12 6C12 5.20435 11.6839 4.44129 11.1213 3.87868C10.5587 3.31607 9.79565 3 9 3M6 6C6 5.20435 6.31607 4.44129 6.87868 3.87868C7.44129 3.31607 8.20435 3 9 3M9 3V1.5M4.5 6H13.5M6.75 12.75V14.25M11.25 12.75V14.25M9 10.125C5.47913 10.125 2.625 12.8111 2.625 16.125H15.375C15.375 12.8111 12.5209 10.125 9 10.125Z" stroke="#166854" stroke-width="1.25" stroke-linecap="round" stroke-linejoin="round"/>
</svg>
