<svg width="91" height="77" viewBox="0 0 91 77" fill="none" xmlns="http://www.w3.org/2000/svg">
<path d="M48.9275 13.1722C39.7748 14.1737 35.1116 25.0568 25.7936 46.8263L24.6306 49.5357C16.8866 67.6245 13.0126 76.6691 18.0367 82.4224C23.0608 88.1758 33.8062 87 55.2892 84.6493L58.1737 84.3337C79.6566 81.983 90.4021 80.8072 94.0631 74.1034C97.7241 67.3997 91.9858 59.4069 80.5132 43.4209L78.7914 41.0231C64.9865 21.7879 58.0841 12.1702 48.9275 13.1722Z" fill="#8CBEB2"/>
<path d="M50.7708 30.0118C51.5589 29.9255 52.349 30.1559 52.9673 30.6522C53.5856 31.1485 53.9813 31.8701 54.0676 32.6582L56.2353 52.4692C56.3216 53.2573 56.0912 54.0474 55.5949 54.6657C55.0986 55.2839 54.377 55.6797 53.5889 55.766C52.8007 55.8522 52.0106 55.6218 51.3924 55.1255C50.7741 54.6292 50.3783 53.9076 50.2921 53.1195L48.1243 33.3086C48.0381 32.5204 48.2684 31.7303 48.7648 31.1121C49.2611 30.4938 49.9827 30.098 50.7708 30.0118ZM54.9979 68.6431C56.0488 68.5281 57.0109 68.0003 57.6726 67.176C58.3344 66.3516 58.6415 65.2981 58.5265 64.2473C58.4116 63.1965 57.8838 62.2344 57.0595 61.5726C56.2351 60.9109 55.1816 60.6037 54.1308 60.7187C53.08 60.8337 52.1179 61.3614 51.4561 62.1857C50.7944 63.0101 50.4872 64.0636 50.6022 65.1144C50.7172 66.1653 51.2449 67.1274 52.0692 67.7891C52.8936 68.4509 53.9471 68.758 54.9979 68.6431Z" fill="#115343"/>
</svg>
